<svg xmlns="http://www.w3.org/2000/svg" xmlns:xlink="http://www.w3.org/1999/xlink" width="343" zoomAndPan="magnify" viewBox="0 0 257.25 112.499997" height="150" preserveAspectRatio="xMidYMid meet" version="1.0"><defs><g/><clipPath id="c8bae1936d"><path d="M 0.195312 97 L 68 97 L 68 106 L 0.195312 106 Z M 0.195312 97 " clip-rule="nonzero"/></clipPath><clipPath id="5c3aeabbc1"><path d="M 0.195312 37 L 9 37 L 9 107 L 0.195312 107 Z M 0.195312 37 " clip-rule="nonzero"/></clipPath></defs><g fill="#404040" fill-opacity="1"><g transform="translate(33.983592, 73.303115)"><g><path d="M 30.84375 -41.828125 L 24.046875 -41.828125 C 23.6875 -41.828125 23.46875 -41.5625 23.46875 -41.359375 L 23.46875 -13.953125 C 23.46875 -9.71875 19.609375 -7.6875 15.6875 -7.6875 C 11.8125 -7.6875 8.359375 -9.875 7.890625 -14.015625 L 7.890625 -34.25 L 0 -34.25 L 0 -13.953125 C 0 -5.328125 7.0625 0 15.6875 0 C 24.578125 0 31.375 -5.125 31.375 -13.953125 L 31.375 -41.359375 C 31.375 -41.5625 31.109375 -41.828125 30.84375 -41.828125 Z M 30.84375 -41.828125 "/></g></g></g><g fill="#404040" fill-opacity="1"><g transform="translate(72.662654, 73.303115)"><g><path d="M 28.546875 -0.671875 C 25.9375 -6.484375 23.109375 -12.234375 20.5 -18.140625 C 24.671875 -19.65625 28.171875 -23 28.171875 -29.375 C 28.171875 -41.71875 16.421875 -41.828125 14.0625 -41.828125 L 0.515625 -41.828125 C 0.265625 -41.828125 0 -41.5625 0 -41.359375 L 0 -34.25 L 14.0625 -34.25 C 15.3125 -34.25 20.234375 -33.984375 20.234375 -29.375 C 20.234375 -24.78125 15.78125 -24.578125 14.0625 -24.578125 L 0 -24.578125 L 0 -0.46875 C 0 -0.265625 0.265625 0 0.515625 0 L 7.375 0 C 7.6875 0 7.953125 -0.265625 7.953125 -0.46875 L 7.953125 -16.890625 L 12.4375 -16.890625 L 20.078125 -0.3125 C 20.125 -0.15625 20.4375 0 20.59375 0 L 28.078125 0 C 28.5 0 28.703125 -0.3125 28.546875 -0.671875 Z M 28.546875 -0.671875 "/></g></g></g><g fill="#404040" fill-opacity="1"><g transform="translate(108.466988, 73.303115)"><g><path d="M 20.390625 -29.375 C 20.390625 -24.78125 14.21875 -24.78125 14.21875 -24.78125 L 7.953125 -24.78125 L 7.953125 -34.34375 L 14.21875 -34.34375 C 14.21875 -34.34375 20.390625 -34.40625 20.390625 -29.375 Z M 28.390625 -29.859375 C 28.390625 -42.140625 14.21875 -41.828125 14.21875 -41.828125 L 0.578125 -41.828125 C 0.265625 -41.828125 0 -41.5625 0 -41.359375 L 0 -16.984375 L 14.21875 -16.984375 C 14.21875 -16.984375 20.96875 -17.3125 20.96875 -12.390625 C 20.96875 -8.359375 16.828125 -7.640625 14.21875 -7.640625 L 8 -7.640625 L 8 0 L 14.21875 0 C 17.046875 0 28.96875 -0.515625 28.96875 -12.1875 C 28.96875 -12.1875 29.21875 -18.671875 22.578125 -20.90625 C 25.78125 -22.21875 28.390625 -24.984375 28.390625 -29.859375 Z M 28.390625 -29.859375 "/></g></g></g><g fill="#404040" fill-opacity="1"><g transform="translate(144.637206, 73.303115)"><g><path d="M 32.828125 -0.625 L 16.9375 -41.515625 C 16.78125 -41.921875 16.046875 -41.921875 15.890625 -41.515625 L 0.046875 -0.625 C -0.109375 -0.3125 0.109375 0 0.578125 0 L 7.734375 0 C 7.953125 0 8.203125 -0.109375 8.265625 -0.3125 L 16.421875 -23.625 L 24.671875 -0.3125 C 24.734375 -0.109375 24.984375 0 25.140625 0 L 32.359375 0 C 32.734375 0 32.984375 -0.3125 32.828125 -0.625 Z M 32.828125 -0.625 "/></g></g></g><g fill="#404040" fill-opacity="1"><g transform="translate(184.884286, 73.303115)"><g><path d="M 34.609375 -41.828125 L 27.859375 -41.828125 C 27.5 -41.828125 27.234375 -41.5625 27.234375 -41.359375 L 27.234375 -14.109375 L 7.953125 -41.671875 C 7.890625 -41.765625 7.578125 -41.828125 7.46875 -41.828125 L 0.515625 -41.828125 C 0.265625 -41.828125 0 -41.5625 0 -41.359375 L 0 -10.03125 L 8 -10.03125 L 8 -27.703125 L 27.234375 -0.15625 C 27.296875 -0.046875 27.609375 0 27.703125 0 L 34.609375 0 C 34.96875 0 35.1875 -0.265625 35.1875 -0.46875 L 35.1875 -41.359375 C 35.1875 -41.5625 34.96875 -41.828125 34.609375 -41.828125 Z M 34.609375 -41.828125 "/></g></g></g><path stroke-linecap="butt" transform="matrix(-0.746681, 0, 0, -0.746681, 249.773026, 7.460103)" fill="none" stroke-linejoin="miter" d="M -0.000551753 5.000179 L 84.43556 5.000179 " stroke="#404040" stroke-width="10" stroke-opacity="1" stroke-miterlimit="4"/><path stroke-linecap="butt" transform="matrix(0, -0.746681, 0.746681, 0, 242.310033, 63.803375)" fill="none" stroke-linejoin="miter" d="M -0.00175739 4.999369 L 82.462086 4.999369 " stroke="#404040" stroke-width="10" stroke-opacity="1" stroke-miterlimit="4"/><g clip-path="url(#c8bae1936d)"><path stroke-linecap="butt" transform="matrix(0.746681, 0, 0, 0.746681, 0.900494, 97.974432)" fill="none" stroke-linejoin="miter" d="M 0.0024767 4.998918 L 84.433357 4.998918 " stroke="#404040" stroke-width="10" stroke-opacity="1" stroke-miterlimit="4"/></g><g clip-path="url(#5c3aeabbc1)"><path stroke-linecap="butt" transform="matrix(0, 0.746681, -0.746681, 0, 8.362763, 41.631166)" fill="none" stroke-linejoin="miter" d="M 0.00220559 5.000602 L 82.460817 5.000602 " stroke="#404040" stroke-width="10" stroke-opacity="1" stroke-miterlimit="4"/></g><g fill="#404040" fill-opacity="1"><g transform="translate(73.403386, 99.436966)"><g><path d="M 8.125 -3.625 C 8.125 -3.625 7.96875 -3.625 7.65625 -3.625 C 7.351562 -3.625 6.96875 -3.617188 6.5 -3.609375 C 6.039062 -3.609375 5.566406 -3.609375 5.078125 -3.609375 L 4.5625 0 L 0.71875 0 L 2.03125 -9.34375 C 2.09375 -9.789062 2.238281 -10.140625 2.46875 -10.390625 C 2.695312 -10.640625 3.125 -10.765625 3.75 -10.765625 C 3.976562 -10.765625 4.332031 -10.769531 4.8125 -10.78125 C 5.289062 -10.789062 5.828125 -10.796875 6.421875 -10.796875 C 7.023438 -10.796875 7.65625 -10.796875 8.3125 -10.796875 C 8.96875 -10.804688 9.59375 -10.804688 10.1875 -10.796875 C 10.78125 -10.796875 11.300781 -10.789062 11.75 -10.78125 C 12.195312 -10.769531 12.515625 -10.757812 12.703125 -10.75 C 13.535156 -10.664062 14.128906 -10.410156 14.484375 -9.984375 C 14.847656 -9.554688 14.96875 -8.859375 14.84375 -7.890625 C 14.695312 -7.015625 14.53125 -6.378906 14.34375 -5.984375 C 14.15625 -5.585938 13.90625 -5.28125 13.59375 -5.0625 C 13.46875 -4.976562 13.300781 -4.910156 13.09375 -4.859375 C 12.894531 -4.816406 12.6875 -4.796875 12.46875 -4.796875 L 12.453125 -4.703125 C 12.554688 -4.703125 12.675781 -4.703125 12.8125 -4.703125 C 12.945312 -4.703125 13.0625 -4.695312 13.15625 -4.6875 C 13.539062 -4.601562 13.804688 -4.472656 13.953125 -4.296875 C 14.109375 -4.117188 14.191406 -3.90625 14.203125 -3.65625 C 14.222656 -3.414062 14.207031 -3.171875 14.15625 -2.921875 L 13.875 -0.859375 C 13.832031 -0.566406 13.832031 -0.351562 13.875 -0.21875 C 13.925781 -0.0820312 13.957031 -0.0078125 13.96875 0 L 11.09375 0 C 10.707031 0 10.40625 -0.0625 10.1875 -0.1875 C 9.976562 -0.3125 9.898438 -0.578125 9.953125 -0.984375 L 10.1875 -2.53125 C 10.257812 -3.007812 10.191406 -3.3125 9.984375 -3.4375 C 9.785156 -3.5625 9.421875 -3.625 8.890625 -3.625 Z M 5.34375 -5.453125 C 5.5 -5.453125 5.75 -5.445312 6.09375 -5.4375 C 6.445312 -5.4375 6.828125 -5.4375 7.234375 -5.4375 C 7.648438 -5.4375 8.035156 -5.4375 8.390625 -5.4375 C 8.753906 -5.4375 9.015625 -5.4375 9.171875 -5.4375 C 9.546875 -5.4375 9.894531 -5.554688 10.21875 -5.796875 C 10.539062 -6.035156 10.738281 -6.488281 10.8125 -7.15625 C 10.894531 -7.625 10.875 -7.988281 10.75 -8.25 C 10.625 -8.519531 10.378906 -8.671875 10.015625 -8.703125 C 9.796875 -8.753906 9.503906 -8.78125 9.140625 -8.78125 C 8.773438 -8.78125 8.390625 -8.78125 7.984375 -8.78125 C 7.585938 -8.78125 7.222656 -8.773438 6.890625 -8.765625 C 6.566406 -8.753906 6.328125 -8.75 6.171875 -8.75 C 6.140625 -8.75 6.066406 -8.722656 5.953125 -8.671875 C 5.835938 -8.628906 5.765625 -8.515625 5.734375 -8.328125 Z M 5.34375 -5.453125 "/></g></g></g><g fill="#404040" fill-opacity="1"><g transform="translate(91.697571, 99.436966)"><g><path d="M 0.71875 0 L 2.03125 -9.34375 C 2.082031 -9.695312 2.132812 -9.972656 2.1875 -10.171875 C 2.238281 -10.378906 2.363281 -10.53125 2.5625 -10.625 C 2.757812 -10.71875 3.066406 -10.765625 3.484375 -10.765625 L 14.296875 -10.765625 L 14.046875 -8.75 L 5.8125 -8.75 L 5.484375 -6.5 L 12.96875 -6.5 L 12.6875 -4.515625 L 5.21875 -4.515625 L 4.84375 -2.015625 L 13.078125 -2.015625 L 12.796875 0 Z M 0.71875 0 "/></g></g></g><g fill="#404040" fill-opacity="1"><g transform="translate(108.447874, 99.436966)"><g><path d="M 6.15625 0.109375 C 5.144531 0.078125 4.265625 -0.0078125 3.515625 -0.15625 C 2.765625 -0.300781 2.15625 -0.5625 1.6875 -0.9375 C 1.226562 -1.320312 0.921875 -1.867188 0.765625 -2.578125 C 0.609375 -3.296875 0.609375 -4.207031 0.765625 -5.3125 C 0.941406 -6.53125 1.253906 -7.507812 1.703125 -8.25 C 2.160156 -8.988281 2.75 -9.550781 3.46875 -9.9375 C 4.1875 -10.320312 5.03125 -10.578125 6 -10.703125 C 6.976562 -10.828125 8.078125 -10.890625 9.296875 -10.890625 C 9.890625 -10.890625 10.46875 -10.878906 11.03125 -10.859375 C 11.601562 -10.847656 12.113281 -10.820312 12.5625 -10.78125 C 13.019531 -10.738281 13.390625 -10.6875 13.671875 -10.625 C 14.085938 -10.550781 14.378906 -10.429688 14.546875 -10.265625 C 14.710938 -10.097656 14.804688 -9.910156 14.828125 -9.703125 C 14.847656 -9.503906 14.84375 -9.304688 14.8125 -9.109375 L 14.671875 -8.171875 C 14.597656 -8.296875 14.394531 -8.398438 14.0625 -8.484375 C 13.738281 -8.566406 13.34375 -8.628906 12.875 -8.671875 C 12.414062 -8.722656 11.953125 -8.765625 11.484375 -8.796875 C 11.023438 -8.828125 10.601562 -8.847656 10.21875 -8.859375 C 9.832031 -8.867188 9.5625 -8.875 9.40625 -8.875 C 8.28125 -8.875 7.394531 -8.78125 6.75 -8.59375 C 6.101562 -8.414062 5.613281 -8.070312 5.28125 -7.5625 C 4.957031 -7.0625 4.726562 -6.320312 4.59375 -5.34375 C 4.46875 -4.4375 4.484375 -3.734375 4.640625 -3.234375 C 4.796875 -2.742188 5.101562 -2.410156 5.5625 -2.234375 C 6.03125 -2.054688 6.664062 -1.96875 7.46875 -1.96875 C 8.351562 -1.96875 9.046875 -2.019531 9.546875 -2.125 C 10.046875 -2.238281 10.414062 -2.4375 10.65625 -2.71875 C 10.90625 -3 11.066406 -3.378906 11.140625 -3.859375 C 11.160156 -4.003906 11.175781 -4.125 11.1875 -4.21875 C 11.207031 -4.320312 11.222656 -4.40625 11.234375 -4.46875 L 6.6875 -4.46875 C 6.769531 -4.988281 6.859375 -5.390625 6.953125 -5.671875 C 7.054688 -5.960938 7.238281 -6.171875 7.5 -6.296875 C 7.769531 -6.421875 8.179688 -6.484375 8.734375 -6.484375 L 14.859375 -6.484375 L 14.484375 -3.90625 C 14.359375 -2.96875 14.09375 -2.226562 13.6875 -1.6875 C 13.28125 -1.15625 12.753906 -0.757812 12.109375 -0.5 C 11.460938 -0.238281 10.707031 -0.0703125 9.84375 0 C 8.976562 0.0703125 8.003906 0.109375 6.921875 0.109375 C 6.796875 0.109375 6.664062 0.109375 6.53125 0.109375 C 6.40625 0.109375 6.28125 0.109375 6.15625 0.109375 Z M 6.15625 0.109375 "/></g></g></g><g fill="#404040" fill-opacity="1"><g transform="translate(126.297611, 99.436966)"><g><path d="M 0.71875 0 C 0.9375 -1.59375 1.160156 -3.1875 1.390625 -4.78125 C 1.617188 -6.382812 1.84375 -7.972656 2.0625 -9.546875 C 2.09375 -9.816406 2.140625 -10.039062 2.203125 -10.21875 C 2.265625 -10.394531 2.390625 -10.53125 2.578125 -10.625 C 2.773438 -10.71875 3.078125 -10.765625 3.484375 -10.765625 L 6.0625 -10.765625 L 4.5625 0 Z M 0.71875 0 "/></g></g></g><g fill="#404040" fill-opacity="1"><g transform="translate(135.46884, 99.436966)"><g><path d="M 6.921875 0.15625 C 5.691406 0.15625 4.644531 0.0703125 3.78125 -0.09375 C 2.925781 -0.257812 2.25 -0.550781 1.75 -0.96875 C 1.25 -1.382812 0.921875 -1.953125 0.765625 -2.671875 C 0.609375 -3.390625 0.609375 -4.296875 0.765625 -5.390625 C 0.921875 -6.503906 1.1875 -7.414062 1.5625 -8.125 C 1.9375 -8.84375 2.429688 -9.40625 3.046875 -9.8125 C 3.671875 -10.226562 4.429688 -10.519531 5.328125 -10.6875 C 6.234375 -10.863281 7.304688 -10.953125 8.546875 -10.953125 C 9.796875 -10.953125 10.84375 -10.863281 11.6875 -10.6875 C 12.539062 -10.519531 13.210938 -10.226562 13.703125 -9.8125 C 14.191406 -9.40625 14.515625 -8.84375 14.671875 -8.125 C 14.828125 -7.40625 14.835938 -6.492188 14.703125 -5.390625 C 14.546875 -4.273438 14.28125 -3.359375 13.90625 -2.640625 C 13.53125 -1.921875 13.035156 -1.351562 12.421875 -0.9375 C 11.804688 -0.53125 11.046875 -0.242188 10.140625 -0.078125 C 9.234375 0.078125 8.160156 0.15625 6.921875 0.15625 Z M 7.234375 -1.828125 C 7.765625 -1.828125 8.222656 -1.875 8.609375 -1.96875 C 9.003906 -2.070312 9.335938 -2.253906 9.609375 -2.515625 C 9.878906 -2.773438 10.109375 -3.140625 10.296875 -3.609375 C 10.484375 -4.078125 10.632812 -4.671875 10.75 -5.390625 C 10.84375 -6.117188 10.859375 -6.710938 10.796875 -7.171875 C 10.742188 -7.628906 10.613281 -7.988281 10.40625 -8.25 C 10.207031 -8.507812 9.925781 -8.6875 9.5625 -8.78125 C 9.195312 -8.882812 8.753906 -8.9375 8.234375 -8.9375 C 7.703125 -8.9375 7.238281 -8.882812 6.84375 -8.78125 C 6.457031 -8.6875 6.125 -8.507812 5.84375 -8.25 C 5.570312 -7.988281 5.34375 -7.628906 5.15625 -7.171875 C 4.976562 -6.710938 4.835938 -6.117188 4.734375 -5.390625 C 4.640625 -4.671875 4.613281 -4.078125 4.65625 -3.609375 C 4.707031 -3.140625 4.835938 -2.773438 5.046875 -2.515625 C 5.253906 -2.253906 5.539062 -2.070312 5.90625 -1.96875 C 6.269531 -1.875 6.710938 -1.828125 7.234375 -1.828125 Z M 7.234375 -1.828125 "/></g></g></g><g fill="#404040" fill-opacity="1"><g transform="translate(153.318578, 99.436966)"><g><path d="M 0.71875 0 L 2.03125 -9.453125 C 2.09375 -9.816406 2.160156 -10.09375 2.234375 -10.28125 C 2.316406 -10.46875 2.457031 -10.59375 2.65625 -10.65625 C 2.851562 -10.726562 3.15625 -10.765625 3.5625 -10.765625 L 7.1875 -10.765625 L 11.328125 -3.890625 L 11.375 -3.34375 L 12.40625 -10.765625 L 15.234375 -10.765625 C 15.203125 -10.734375 15.164062 -10.632812 15.125 -10.46875 C 15.09375 -10.3125 15.0625 -10.132812 15.03125 -9.9375 C 15.007812 -9.738281 14.984375 -9.5625 14.953125 -9.40625 L 13.8125 -1.140625 C 13.726562 -0.628906 13.566406 -0.3125 13.328125 -0.1875 C 13.097656 -0.0625 12.695312 0 12.125 0 L 8.828125 0 L 4.5625 -7.015625 L 4.546875 -7.609375 L 3.46875 0 Z M 0.71875 0 "/></g></g></g><g fill="#404040" fill-opacity="1"><g transform="translate(171.612762, 99.436966)"><g/></g></g><g fill="#404040" fill-opacity="1"><g transform="translate(180.783991, 99.436966)"><g><path d="M 1.96875 -9.6875 C 2.03125 -10.144531 2.164062 -10.4375 2.375 -10.5625 C 2.582031 -10.695312 2.859375 -10.765625 3.203125 -10.765625 C 4.484375 -10.785156 5.601562 -10.796875 6.5625 -10.796875 C 7.519531 -10.804688 8.359375 -10.8125 9.078125 -10.8125 C 9.796875 -10.8125 10.40625 -10.804688 10.90625 -10.796875 C 11.40625 -10.796875 11.816406 -10.78125 12.140625 -10.75 C 13.035156 -10.664062 13.640625 -10.398438 13.953125 -9.953125 C 14.273438 -9.515625 14.382812 -8.910156 14.28125 -8.140625 C 14.1875 -7.453125 13.984375 -6.929688 13.671875 -6.578125 C 13.367188 -6.234375 13.050781 -6.003906 12.71875 -5.890625 C 12.382812 -5.773438 12.097656 -5.707031 11.859375 -5.6875 C 12.265625 -5.6875 12.613281 -5.644531 12.90625 -5.5625 C 13.207031 -5.488281 13.445312 -5.363281 13.625 -5.1875 C 13.8125 -5.007812 13.929688 -4.75 13.984375 -4.40625 C 14.035156 -4.0625 14.03125 -3.628906 13.96875 -3.109375 C 13.875 -2.410156 13.707031 -1.851562 13.46875 -1.4375 C 13.226562 -1.019531 12.90625 -0.707031 12.5 -0.5 C 12.09375 -0.289062 11.585938 -0.144531 10.984375 -0.0625 C 10.390625 0.0078125 9.675781 0.046875 8.84375 0.046875 C 8.3125 0.046875 7.707031 0.046875 7.03125 0.046875 C 6.363281 0.046875 5.679688 0.0390625 4.984375 0.03125 C 4.296875 0.0195312 3.644531 0.015625 3.03125 0.015625 C 2.414062 0.015625 1.890625 0.0078125 1.453125 0 C 1.023438 0 0.742188 0 0.609375 0 Z M 8.796875 -6.390625 C 9.066406 -6.390625 9.3125 -6.421875 9.53125 -6.484375 C 9.75 -6.546875 9.929688 -6.679688 10.078125 -6.890625 C 10.222656 -7.097656 10.328125 -7.421875 10.390625 -7.859375 C 10.441406 -8.285156 10.40625 -8.609375 10.28125 -8.828125 C 10.15625 -9.054688 9.890625 -9.179688 9.484375 -9.203125 C 9.179688 -9.210938 8.84375 -9.21875 8.46875 -9.21875 C 8.09375 -9.21875 7.71875 -9.21875 7.34375 -9.21875 C 6.96875 -9.21875 6.640625 -9.21875 6.359375 -9.21875 C 6.296875 -9.21875 6.171875 -9.179688 5.984375 -9.109375 C 5.804688 -9.046875 5.691406 -8.863281 5.640625 -8.5625 L 4.6875 -1.78125 C 4.78125 -1.78125 4.875 -1.78125 4.96875 -1.78125 C 5.0625 -1.78125 5.207031 -1.78125 5.40625 -1.78125 C 5.613281 -1.78125 5.910156 -1.78125 6.296875 -1.78125 C 6.679688 -1.78125 7.210938 -1.78125 7.890625 -1.78125 C 8.203125 -1.78125 8.484375 -1.785156 8.734375 -1.796875 C 8.984375 -1.816406 9.203125 -1.867188 9.390625 -1.953125 C 9.585938 -2.035156 9.75 -2.179688 9.875 -2.390625 C 10 -2.609375 10.085938 -2.90625 10.140625 -3.28125 C 10.210938 -3.8125 10.15625 -4.179688 9.96875 -4.390625 C 9.78125 -4.597656 9.351562 -4.703125 8.6875 -4.703125 L 4.984375 -4.703125 C 4.921875 -4.703125 4.878906 -4.773438 4.859375 -4.921875 C 4.847656 -5.078125 4.851562 -5.265625 4.875 -5.484375 C 4.90625 -5.703125 4.929688 -5.894531 4.953125 -6.0625 C 4.972656 -6.226562 4.984375 -6.335938 4.984375 -6.390625 Z M 8.796875 -6.390625 "/></g></g></g><g fill="#404040" fill-opacity="1"><g transform="translate(198.493373, 99.436966)"><g><path d="M 6.953125 0.015625 C 6.367188 0.015625 5.796875 0.015625 5.234375 0.015625 C 4.679688 0.015625 4.140625 0.0078125 3.609375 0 C 3.078125 0 2.5625 0 2.0625 0 C 1.570312 0 1.125 0 0.71875 0 L 1.984375 -9.03125 C 2.066406 -9.644531 2.21875 -10.082031 2.4375 -10.34375 C 2.664062 -10.613281 3.109375 -10.753906 3.765625 -10.765625 C 4.171875 -10.765625 4.613281 -10.769531 5.09375 -10.78125 C 5.570312 -10.789062 6.066406 -10.796875 6.578125 -10.796875 C 7.085938 -10.796875 7.601562 -10.796875 8.125 -10.796875 C 8.65625 -10.796875 9.171875 -10.796875 9.671875 -10.796875 C 10.742188 -10.773438 11.640625 -10.675781 12.359375 -10.5 C 13.078125 -10.332031 13.628906 -10.050781 14.015625 -9.65625 C 14.410156 -9.257812 14.65625 -8.703125 14.75 -7.984375 C 14.851562 -7.273438 14.828125 -6.378906 14.671875 -5.296875 C 14.515625 -4.140625 14.257812 -3.207031 13.90625 -2.5 C 13.5625 -1.800781 13.097656 -1.265625 12.515625 -0.890625 C 11.929688 -0.523438 11.1875 -0.28125 10.28125 -0.15625 C 9.375 -0.0390625 8.265625 0.015625 6.953125 0.015625 Z M 7.375 -1.921875 C 7.945312 -1.921875 8.4375 -1.984375 8.84375 -2.109375 C 9.25 -2.234375 9.585938 -2.425781 9.859375 -2.6875 C 10.140625 -2.957031 10.359375 -3.304688 10.515625 -3.734375 C 10.671875 -4.160156 10.796875 -4.679688 10.890625 -5.296875 C 10.992188 -6.097656 11.023438 -6.738281 10.984375 -7.21875 C 10.953125 -7.707031 10.832031 -8.066406 10.625 -8.296875 C 10.425781 -8.535156 10.128906 -8.691406 9.734375 -8.765625 C 9.347656 -8.835938 8.859375 -8.875 8.265625 -8.875 C 8.109375 -8.875 7.925781 -8.875 7.71875 -8.875 C 7.519531 -8.875 7.3125 -8.867188 7.09375 -8.859375 C 6.875 -8.847656 6.664062 -8.84375 6.46875 -8.84375 C 6.269531 -8.84375 6.09375 -8.835938 5.9375 -8.828125 C 5.894531 -8.742188 5.847656 -8.644531 5.796875 -8.53125 C 5.753906 -8.414062 5.71875 -8.253906 5.6875 -8.046875 L 4.828125 -1.9375 C 4.960938 -1.9375 5.140625 -1.9375 5.359375 -1.9375 C 5.578125 -1.9375 5.804688 -1.929688 6.046875 -1.921875 C 6.285156 -1.921875 6.519531 -1.921875 6.75 -1.921875 C 6.988281 -1.921875 7.195312 -1.921875 7.375 -1.921875 Z M 7.375 -1.921875 "/></g></g></g></svg>