<svg xmlns="http://www.w3.org/2000/svg" xmlns:xlink="http://www.w3.org/1999/xlink" width="622" zoomAndPan="magnify" viewBox="0 0 466.5 422.250001" height="563" preserveAspectRatio="xMidYMid meet" version="1.0"><defs><g/><clipPath id="615f4e2c80"><path d="M 0.164062 0 L 465.835938 0 L 465.835938 421.5 L 0.164062 421.5 Z M 0.164062 0 " clip-rule="nonzero"/></clipPath></defs><g clip-path="url(#615f4e2c80)"><path fill="#ffffff" d="M 0.164062 0 L 465.835938 0 L 465.835938 421.5 L 0.164062 421.5 Z M 0.164062 0 " fill-opacity="1" fill-rule="nonzero"/></g><g fill="#3b3937" fill-opacity="1"><g transform="translate(221.820229, 309.205061)"><g><path d="M 6.34375 0 L 6.34375 -1.8125 L 10.15625 -1.8125 C 14.394531 -1.8125 17.691406 -2.78125 20.046875 -4.71875 C 22.410156 -6.65625 23.59375 -9.863281 23.59375 -14.34375 L 23.59375 -115.78125 C 23.59375 -120.007812 22.410156 -123.0625 20.046875 -124.9375 C 17.691406 -126.8125 14.394531 -127.75 10.15625 -127.75 L 6.34375 -127.75 L 6.34375 -129.5625 L 57.890625 -129.5625 C 73.984375 -129.5625 85.929688 -126.65625 93.734375 -120.84375 C 101.535156 -115.039062 105.4375 -106.695312 105.4375 -95.8125 C 105.4375 -88.914062 104.070312 -83.226562 101.34375 -78.75 C 98.625 -74.28125 95.085938 -70.679688 90.734375 -67.953125 C 86.378906 -65.234375 81.84375 -63.207031 77.125 -61.875 L 101.078125 -23.40625 C 104.828125 -17.476562 107.910156 -12.972656 110.328125 -9.890625 C 112.753906 -6.804688 114.875 -4.6875 116.6875 -3.53125 C 118.5 -2.382812 120.3125 -1.8125 122.125 -1.8125 L 122.671875 -1.8125 L 122.671875 0 L 119.046875 0 C 111.546875 0 105.617188 -0.390625 101.265625 -1.171875 C 96.910156 -1.960938 93.335938 -3.535156 90.546875 -5.890625 C 87.765625 -8.253906 84.925781 -11.796875 82.03125 -16.515625 L 55.34375 -60.421875 L 44.640625 -60.421875 L 44.640625 -14.34375 C 44.640625 -9.863281 45.816406 -6.65625 48.171875 -4.71875 C 50.535156 -2.78125 53.832031 -1.8125 58.0625 -1.8125 L 61.875 -1.8125 L 61.875 0 Z M 44.640625 -62.25 L 56.796875 -62.25 C 66.109375 -62.25 72.789062 -64.757812 76.84375 -69.78125 C 80.90625 -74.800781 82.9375 -83.054688 82.9375 -94.546875 C 82.9375 -106.273438 80.878906 -114.738281 76.765625 -119.9375 C 72.648438 -125.144531 65.875 -127.75 56.4375 -127.75 L 44.640625 -127.75 Z M 44.640625 -62.25 "/></g></g></g><g fill="#3b3937" fill-opacity="1"><g transform="translate(112.38287, 252.878751)"><g><path d="M 66.96875 1.8125 C 52.207031 1.8125 40.679688 -1.332031 32.390625 -7.625 C 24.109375 -13.914062 19.96875 -24.5 19.96875 -39.375 L 19.96875 -115.78125 C 19.96875 -120.007812 18.816406 -123.0625 16.515625 -124.9375 C 14.210938 -126.8125 10.945312 -127.75 6.71875 -127.75 L 2.71875 -127.75 L 2.71875 -129.5625 L 58.25 -129.5625 L 58.25 -127.75 L 54.4375 -127.75 C 50.207031 -127.75 46.941406 -126.78125 44.640625 -124.84375 C 42.335938 -122.914062 41.1875 -119.710938 41.1875 -115.234375 L 41.1875 -35.390625 C 41.1875 -26.429688 42.425781 -19.441406 44.90625 -14.421875 C 47.394531 -9.398438 50.84375 -5.890625 55.25 -3.890625 C 59.664062 -1.898438 64.78125 -0.90625 70.59375 -0.90625 C 82.6875 -0.90625 92.179688 -4.140625 99.078125 -10.609375 C 105.972656 -17.085938 109.421875 -26.007812 109.421875 -37.375 L 109.421875 -115.78125 C 109.421875 -120.007812 108.238281 -123.0625 105.875 -124.9375 C 103.519531 -126.8125 100.226562 -127.75 96 -127.75 L 91.28125 -127.75 L 91.28125 -129.5625 L 128.84375 -129.5625 L 128.84375 -127.75 L 124.484375 -127.75 C 120.128906 -127.75 116.832031 -126.78125 114.59375 -124.84375 C 112.351562 -122.914062 111.234375 -119.648438 111.234375 -115.046875 L 111.234375 -37.203125 C 111.234375 -24.859375 107.453125 -15.269531 99.890625 -8.4375 C 92.335938 -1.601562 81.363281 1.8125 66.96875 1.8125 Z M 66.96875 1.8125 "/></g></g></g></svg>